<svg id="Capa_1" enable-background="new 0 0 512 512" height="512" viewBox="0 0 512 512" width="512" xmlns="http://www.w3.org/2000/svg"><g><path d="m256 211c-24.813 0-45 20.187-45 45s20.187 45 45 45 45-20.187 45-45-20.187-45-45-45zm0 60c-8.271 0-15-6.729-15-15s6.729-15 15-15 15 6.729 15 15-6.729 15-15 15z"/><path d="m188.304 288.325c-4.847-10.126-7.304-21.002-7.304-32.325s2.457-22.199 7.304-32.325l4.583-9.576-64.411-64.411-10.136 15.298c-17.884 26.995-27.337 58.467-27.337 91.014s9.453 64.019 27.337 91.014l10.136 15.298 64.411-64.411zm-31.23 2.961-22.938 22.938c-17.681-36.821-17.681-79.626 0-116.447l22.938 22.938c-4.035 11.273-6.074 23.098-6.074 35.285s2.039 24.012 6.074 35.286z"/><path d="m288.326 323.697c-10.127 4.846-21.003 7.303-32.326 7.303-11.322 0-22.198-2.458-32.326-7.304l-9.575-4.582-64.411 64.41 15.299 10.136c26.994 17.884 58.466 27.337 91.013 27.337 32.546 0 64.021-9.454 91.014-27.337l15.298-10.135-64.409-64.411zm-90.55 54.166 22.938-22.938c11.274 4.035 23.1 6.075 35.286 6.075 12.187 0 24.012-2.039 35.286-6.074l22.938 22.938c-36.822 17.679-79.626 17.68-116.448-.001z"/><path d="m383.524 149.688-64.411 64.412 4.583 9.576c4.847 10.125 7.304 21.001 7.304 32.324s-2.457 22.199-7.304 32.325l-4.583 9.576 64.411 64.411 10.136-15.298c17.884-26.995 27.337-58.466 27.337-91.014s-9.453-64.019-27.337-91.014zm-5.661 164.536-22.938-22.938c4.036-11.274 6.075-23.099 6.075-35.286s-2.039-24.012-6.074-35.286l22.938-22.938c17.68 36.821 17.68 79.627-.001 116.448z"/><path d="m223.674 188.303c10.127-4.846 21.003-7.303 32.326-7.303 11.322 0 22.198 2.458 32.326 7.304l9.575 4.582 64.411-64.41-15.299-10.136c-26.994-17.884-58.466-27.337-91.013-27.337-32.546 0-64.021 9.454-91.014 27.337l-15.298 10.135 64.409 64.411zm90.55-54.166-22.938 22.938c-11.274-4.035-23.1-6.075-35.286-6.075-12.187 0-24.012 2.039-35.286 6.074l-22.938-22.938c36.822-17.679 79.626-17.68 116.448.001z"/><path d="m509.289 218.725-1.345-9.216-34.425-11.2c-5.127-19.399-12.812-37.942-22.922-55.311l16.428-32.275-5.565-7.467c-7.439-9.984-15.662-19.497-24.44-28.275-8.775-8.775-18.288-16.999-28.275-24.441l-7.468-5.565-32.271 16.427c-17.371-10.114-35.912-17.799-55.315-22.927l-11.201-34.419-9.216-1.345c-12.325-1.799-24.866-2.711-37.274-2.711s-24.949.912-37.274 2.711l-9.216 1.345-11.199 34.419c-19.401 5.127-37.943 12.813-55.315 22.927l-32.271-16.427-7.468 5.565c-9.987 7.442-19.5 15.666-28.275 24.441-8.778 8.778-17.001 18.291-24.44 28.275l-5.565 7.468 16.429 32.274c-10.111 17.369-17.795 35.909-22.923 55.311l-34.425 11.2-1.345 9.216c-1.801 12.326-2.713 24.867-2.713 37.275s.912 24.949 2.711 37.275l1.345 9.216 34.425 11.201c5.128 19.401 12.812 37.941 22.923 55.31l-16.429 32.275 5.565 7.468c7.439 9.983 15.662 19.496 24.44 28.274 8.773 8.774 18.287 16.997 28.275 24.44l7.468 5.565 32.271-16.427c17.372 10.113 35.914 17.799 55.315 22.927l11.198 34.418 9.216 1.346c12.326 1.8 24.867 2.712 37.277 2.712s24.951-.912 37.275-2.711l9.216-1.346 11.198-34.418c19.402-5.128 37.944-12.813 55.315-22.927l32.271 16.427 7.468-5.565c9.988-7.443 19.502-15.667 28.276-24.441 8.777-8.778 17-18.291 24.439-28.274l5.565-7.468-16.429-32.275c10.111-17.37 17.795-35.909 22.923-55.311l34.425-11.2 1.345-9.216c1.801-12.326 2.713-24.867 2.713-37.275s-.912-24.949-2.711-37.275zm-28.539 61.066-32.594 10.604-1.865 8.346c-4.892 21.884-13.479 42.602-25.52 61.579l-4.582 7.22 15.556 30.56c-5.009 6.182-10.347 12.113-15.938 17.706-5.591 5.59-11.521 10.928-17.707 15.939l-30.557-15.554-7.221 4.582c-18.979 12.043-39.698 20.631-61.583 25.524l-8.346 1.866-10.603 32.587c-15.83 1.661-31.752 1.661-47.582 0l-10.603-32.587-8.346-1.866c-21.884-4.893-42.604-13.48-61.583-25.524l-7.221-4.582-30.555 15.554c-6.186-5.011-12.116-10.348-17.706-15.938-5.593-5.593-10.931-11.524-15.939-17.707l15.556-30.56-4.582-7.22c-12.041-18.977-20.628-39.695-25.521-61.58l-1.866-8.345-32.592-10.604c-.831-7.916-1.25-15.885-1.25-23.791 0-7.907.419-15.875 1.25-23.791l32.592-10.604 1.866-8.345c4.893-21.884 13.479-42.603 25.521-61.58l4.582-7.22-15.556-30.56c5.008-6.182 10.347-12.113 15.938-17.706 5.591-5.591 11.522-10.929 17.707-15.939l30.557 15.554 7.221-4.582c18.979-12.044 39.699-20.632 61.583-25.524l8.346-1.866 10.603-32.588c15.832-1.66 31.75-1.66 47.582 0l10.603 32.588 8.346 1.866c21.885 4.892 42.604 13.48 61.583 25.524l7.221 4.582 30.555-15.554c6.185 5.01 12.116 10.348 17.707 15.939 5.592 5.593 10.931 11.524 15.938 17.706l-15.555 30.559 4.581 7.22c12.042 18.979 20.628 39.697 25.52 61.58l1.865 8.346 32.594 10.604c.831 7.917 1.25 15.884 1.25 23.791 0 7.906-.419 15.875-1.25 23.791z"/></g></svg>